<svg
  width="512"
  height="512"
  viewBox="0 0 512 512"
  fill="none"
  xmlns="http://www.w3.org/2000/svg"
>
  <path
    d="M450.485 404.013C463 404.206 473.148 414.346 473.273 426.934C473.4 439.721 463.135 450.188 450.348 450.315C437.56 450.442 427.089 440.18 426.962 427.393V427.392C426.836 414.605 437.101 404.138 449.888 404.011L450.485 404.013ZM314.244 66.1729L436.687 335.92L437.97 338.746H388.671V348.608H388.844V440.782H344.105V371.243H256.838L258.007 368.467L274.849 328.471L275.363 327.247H367.8L362.932 315.949L362.926 315.937L362.921 315.925L312.648 194.924L210.853 439.551L210.34 440.782H162.435L163.547 438.032L202.692 341.224L203.33 339.644L203.487 339.679L206.746 330.175C198.877 327.758 191.19 323.182 184.804 315.529L184.762 315.479L184.723 315.426L119.775 226.257H91.3213C89.2911 226.602 87.4986 227.9 86.1396 229.828C84.7551 231.792 83.9284 234.27 83.8271 236.583L83.1934 320.626L83.1787 322.611H38V234.362L38.0146 234.242C39.0255 225.924 40.5536 219.565 43.3984 213.654C46.2393 207.752 50.3333 202.42 56.2939 196.072L56.3848 195.976L56.4863 195.893C61.7604 191.584 66.2052 188.614 71.1191 186.476C76.029 184.339 81.3042 183.075 88.1826 182.055L88.3291 182.033H151.844C172.706 182.033 181.716 166.607 184.176 161.963C186.131 158.271 188.084 153.33 187.971 147.113C187.857 140.912 185.683 133.233 179.031 124.078L179.02 124.062L179.008 124.046C175.705 119.303 172.792 116.422 169.227 114.562C165.639 112.692 161.194 111.75 154.62 111.268H83.1934V165.239L82.1299 165.803L40.9365 187.619L38 189.174V67.0439H154.704C171.136 67.0439 186.743 71.4956 202.844 83.8184C217.739 95.2188 229.515 113.806 231.831 130.583C233.488 142.587 233.666 150.76 232.486 158.114C231.308 165.454 228.793 171.856 225.281 180.26L225.244 180.348L225.199 180.432L220.214 189.749L220.175 189.823L220.129 189.895L214.673 198.303L214.636 198.359L214.595 198.414C212.531 201.165 210.36 204.655 202.65 210.82C195.329 216.675 185.113 220.055 173.04 223.562L219.61 286.656C222.023 288.307 223.049 288.338 223.581 288.142C223.899 288.024 224.344 287.727 224.927 286.975C225.504 286.229 226.123 285.158 226.835 283.677L310.557 66.2803L312.271 61.8271L314.244 66.1729ZM346.105 438.782H346.106V369.243H346.105V438.782ZM201.479 326.009C201.579 326.056 201.68 326.101 201.78 326.147C201.68 326.101 201.579 326.056 201.479 326.009ZM200.644 325.609C200.706 325.64 200.769 325.669 200.831 325.699C200.75 325.66 200.669 325.621 200.588 325.581L200.644 325.609ZM87.3984 225.763C87.2591 225.859 87.1222 225.958 86.9873 226.062L87.3984 225.764C87.5379 225.668 87.6793 225.575 87.8232 225.486L87.3984 225.763Z"
    fill="white"
  />
  <path
    d="M511.995 0.00488281V511.995H0.00488281V0.00488281H511.995Z"
    stroke="#6A819C"
    stroke-opacity="0.06"
    stroke-width="0.01"
  />
</svg>
