<svg
  width="512"
  height="512"
  viewBox="0 0 512 512"
  fill="none"
  xmlns="http://www.w3.org/2000/svg"
>
  <mask id="path-1-inside-1_0_1" fill="white">
    <path
      d="M446.775 382.095C465.832 381.906 481.434 397.202 481.623 416.259C481.812 435.316 466.515 450.918 447.458 451.107C428.401 451.296 412.8 435.999 412.611 416.942C412.423 397.885 427.718 382.284 446.775 382.095ZM312.279 61C313.085 60.9767 313.825 61.4392 314.158 62.1729L439.709 338.857C439.99 339.476 439.936 340.196 439.568 340.768C439.2 341.339 438.567 341.684 437.888 341.685H282.419L273.821 363.092H355.043C356.147 363.092 357.043 363.987 357.043 365.092V434.419H378.713V353.903C378.713 352.799 379.609 351.904 380.713 351.903H388.647C389.752 351.903 390.647 352.799 390.647 353.903V444.344C390.647 445.448 389.752 446.344 388.647 446.344H346.875C345.771 446.344 344.875 445.448 344.875 444.344V375.017H258.431C257.761 375.017 257.134 374.681 256.764 374.123C256.393 373.565 256.327 372.859 256.587 372.241L273.855 331.216C274.168 330.474 274.895 329.992 275.699 329.992H421.949L312.726 89.1621L235.563 290.518C235.558 290.533 235.55 290.548 235.544 290.563C234.326 293.518 233.05 295.764 231.35 297.527C229.631 299.309 227.601 300.471 225.088 301.454C224.973 301.499 224.853 301.534 224.731 301.557C221.581 302.155 218.927 302.288 216.293 301.539C213.679 300.795 211.307 299.245 208.589 296.914C208.474 296.816 208.371 296.705 208.281 296.584L149.94 217.564C149.523 216.999 149.433 216.256 149.703 215.607C149.974 214.959 150.565 214.499 151.26 214.397C166.359 212.189 176.871 209.317 185.446 204.431C193.945 199.587 200.705 192.669 208.13 182.068C213.704 168.836 218.124 157.536 218.966 145.884C219.803 134.281 217.095 122.164 207.984 107.405C196.68 89.093 172.617 75.2703 150.988 75.7207C150.974 75.721 150.96 75.7217 150.946 75.7217H43.168V165.797L65.3047 154.544V98.4297C65.3049 97.3253 66.2003 96.4297 67.3047 96.4297H150.616L150.797 96.4375C160.241 97.2974 167.242 98.9941 173.279 102.564C178.934 105.909 183.573 110.797 188.586 117.772L189.594 119.195L189.684 119.336C189.711 119.384 189.737 119.433 189.761 119.482C194.479 129.417 196.99 137.322 197.007 145.183C197.023 153.063 194.533 160.657 189.732 169.974C189.692 170.053 189.645 170.13 189.594 170.203C186.838 174.145 183.308 179.356 177.362 183.826C171.383 188.322 163.075 191.995 150.811 193.192C150.746 193.199 150.681 193.202 150.616 193.202H82.7725C64.7186 194.214 46.205 210.405 43.168 234.922V313.675H65.3047V234.791C65.3047 234.617 65.3273 234.443 65.3721 234.275C66.8323 228.802 68.5595 224.695 71.501 221.513C74.45 218.322 78.428 216.265 83.957 214.474L84.1084 214.432C84.2604 214.395 84.4166 214.376 84.5732 214.376H120.045C120.68 214.376 121.278 214.679 121.655 215.19L191.605 310.213C210.491 331.442 241.817 327.016 254.036 301.571L310.725 165.724L310.788 165.587C311.128 164.919 311.817 164.493 312.575 164.494C313.383 164.496 314.112 164.984 314.42 165.731L376.728 316.777C376.982 317.394 376.912 318.098 376.541 318.652C376.17 319.207 375.546 319.54 374.879 319.54H366.012C365.203 319.54 364.474 319.053 364.164 318.307L312.568 194.08L208.143 445.112C207.832 445.858 207.104 446.344 206.296 446.344H161.584C160.919 446.344 160.298 446.014 159.926 445.463C159.554 444.912 159.48 444.211 159.729 443.595L199.868 344.296L199.944 344.13C200.358 343.325 201.271 342.891 202.168 343.096L210.336 344.96C210.908 345.091 211.394 345.467 211.665 345.988C211.936 346.51 211.964 347.124 211.741 347.668L176.232 434.419H198.991L242.45 330.498C236.127 333.365 227.336 335.429 217.971 335.156C205.54 334.794 191.879 330.308 181.518 317.889C181.49 317.855 181.462 317.821 181.437 317.785L114.827 226.302H85.6191C83.5196 226.657 81.6696 228 80.2695 229.986C78.844 232.01 77.9928 234.56 77.8887 236.943L77.2393 323.149C77.2309 324.248 76.3377 325.134 75.2393 325.134H33C31.8954 325.134 31 324.238 31 323.134V234.791C31 234.711 31.005 234.63 31.0146 234.55C32.0508 226.021 33.6167 219.505 36.5303 213.449C39.44 207.402 43.634 201.937 49.7441 195.428L49.8379 195.334C49.8698 195.304 49.9027 195.275 49.9365 195.247C55.3423 190.829 59.8959 187.787 64.9287 185.596C69.9575 183.406 75.3622 182.112 82.4131 181.065L82.5596 181.049C82.6084 181.045 82.658 181.044 82.707 181.044H147.683C169.104 181.044 178.356 165.197 180.88 160.43C182.887 156.638 184.893 151.561 184.776 145.173C184.66 138.8 182.428 130.913 175.602 121.516C175.594 121.505 175.586 121.494 175.578 121.483C172.189 116.615 169.195 113.653 165.529 111.74C161.842 109.816 157.275 108.85 150.532 108.354H77.2393V162.531C77.2392 163.272 76.829 163.952 76.1748 164.299L33.9365 186.676C33.3167 187.004 32.5698 186.984 31.9688 186.622C31.3677 186.26 31 185.61 31 184.908V65.0967C31.0004 63.9924 31.8956 63.0967 33 63.0967H150.616C167.455 63.0968 183.447 67.6592 199.947 80.292C215.212 91.979 227.276 111.033 229.649 128.226C231.348 140.536 231.531 148.914 230.322 156.449C229.116 163.971 226.538 170.533 222.938 179.152C222.913 179.211 222.885 179.269 222.855 179.325L217.744 188.882C217.718 188.931 217.689 188.98 217.658 189.027L212.063 197.651C212.039 197.689 212.012 197.727 211.985 197.763C209.869 200.584 207.647 204.159 199.747 210.479C192.235 216.488 181.743 219.955 169.332 223.561L217.134 288.343C219.615 290.042 220.686 290.089 221.258 289.878C221.596 289.753 222.059 289.44 222.66 288.664C223.255 287.895 223.893 286.792 224.624 285.271L310.471 62.2803L310.53 62.1426C310.85 61.4675 311.524 61.0221 312.279 61ZM201.723 345.046L209.89 346.91L173.252 436.419L209.891 346.91L201.723 345.045V345.046ZM446.865 397.734C436.483 397.837 428.149 406.338 428.252 416.721C428.355 427.103 436.856 435.437 447.238 435.334C457.62 435.23 465.954 426.73 465.852 416.348C465.749 405.966 457.248 397.632 446.865 397.734ZM215.621 325.436C216.209 325.51 216.797 325.571 217.386 325.617C217.19 325.602 216.994 325.584 216.798 325.565C216.406 325.528 216.014 325.485 215.622 325.436H215.621ZM229.605 324.594V324.595V324.594ZM205.341 322.644C205.432 322.683 205.524 322.721 205.616 322.759C205.524 322.721 205.432 322.683 205.341 322.644ZM204.63 322.334C204.661 322.348 204.693 322.361 204.725 322.375C204.693 322.361 204.661 322.348 204.63 322.334ZM203.678 321.891C203.746 321.923 203.814 321.956 203.882 321.988C203.814 321.956 203.746 321.923 203.678 321.891ZM84.5732 216.376C84.0678 216.54 83.5782 216.706 83.1035 216.873C83.5782 216.706 84.0679 216.541 84.5732 216.377H120.045L190.054 311.479C190.209 311.654 190.366 311.827 190.522 311.999C190.366 311.827 190.21 311.654 190.055 311.479L120.045 216.376H84.5732ZM224.99 299.336C224.785 299.422 224.574 299.507 224.358 299.592C224.105 299.64 223.858 299.684 223.614 299.725C223.677 299.714 223.74 299.704 223.803 299.693L224.359 299.592C224.575 299.508 224.785 299.422 224.99 299.336ZM76.043 235.317C75.9621 235.844 75.9101 236.369 75.8887 236.889H75.8896C75.9039 236.542 75.9318 236.194 75.9727 235.844C75.9931 235.668 76.017 235.493 76.0439 235.317H76.043ZM155.083 215.832C155.745 215.725 156.398 215.618 157.043 215.508C156.398 215.618 155.745 215.725 155.083 215.832ZM48.3037 213.634C48.1545 213.884 48.0078 214.137 47.8623 214.391C48.0079 214.137 48.1545 213.884 48.3037 213.634ZM166.915 213.507C166.15 213.691 165.371 213.871 164.578 214.046L165.758 213.78C166.147 213.691 166.533 213.599 166.915 213.507ZM49.1133 212.32C49.4089 211.857 49.7114 211.4 50.0195 210.949H50.0186C49.7105 211.4 49.4088 211.857 49.1133 212.32ZM53.0586 206.952C52.9044 207.135 52.7516 207.32 52.5996 207.506C52.7516 207.32 52.9044 207.135 53.0586 206.952ZM53.8271 206.06C53.6204 206.293 53.4159 206.53 53.2129 206.769C53.4158 206.53 53.6206 206.294 53.8271 206.061V206.06ZM51.2021 196.796C50.8243 197.198 50.4542 197.597 50.0918 197.991L51.2021 196.797C51.5352 196.525 51.8643 196.257 52.1904 195.996C51.8644 196.257 51.5351 196.524 51.2021 196.796ZM67.2363 195.532C66.8326 195.74 66.4314 195.956 66.0322 196.178C66.4314 195.956 66.8326 195.74 67.2363 195.532ZM67.8037 195.247C67.6695 195.314 67.5351 195.38 67.4014 195.448C67.5351 195.38 67.6695 195.314 67.8037 195.247ZM69.9072 194.272C69.2656 194.548 68.6284 194.841 67.9961 195.151C68.6284 194.841 69.2655 194.548 69.9072 194.272ZM71.0996 193.782C70.9172 193.854 70.7355 193.928 70.5537 194.002C70.7355 193.928 70.9172 193.854 71.0996 193.782ZM72.832 193.147C72.278 193.336 71.7265 193.538 71.1777 193.752C71.7266 193.538 72.278 193.336 72.832 193.147ZM73.7178 192.858C73.4524 192.942 73.1872 193.027 72.9229 193.116C73.1872 193.027 73.4524 192.942 73.7178 192.858ZM74.6582 192.575C74.3904 192.652 74.1233 192.733 73.8564 192.815C74.1233 192.733 74.3904 192.652 74.6582 192.575ZM152.777 190.959C152.072 191.049 151.351 191.13 150.615 191.202H150.616C150.989 191.166 151.358 191.127 151.724 191.086C152.079 191.046 152.43 191.003 152.777 190.959ZM75.2383 162.531H75.2393V106.355H75.2383V162.531ZM175.189 117.594C175.015 117.373 174.841 117.157 174.667 116.944C174.841 117.157 175.015 117.373 175.189 117.594ZM174.473 116.71C174.343 116.554 174.214 116.4 174.085 116.249C174.214 116.4 174.343 116.554 174.473 116.71ZM197.623 81.043C197.992 81.3176 198.361 81.5969 198.73 81.8799H198.731C198.362 81.5968 197.992 81.3176 197.623 81.043ZM150.615 65.0977C151.639 65.0977 152.659 65.1141 153.677 65.1494C153.169 65.1318 152.661 65.1191 152.152 65.1104C151.641 65.1016 151.129 65.0967 150.616 65.0967H33L150.615 65.0977ZM152.96 216.166L154.346 215.952C154.57 215.917 154.793 215.88 155.016 215.844C154.34 215.953 153.654 216.061 152.96 216.166ZM48.6904 212.995C48.5818 213.171 48.4749 213.349 48.3682 213.527C48.4749 213.349 48.5818 213.171 48.6904 212.995ZM48.3145 213.616C48.3322 213.586 48.3504 213.557 48.3682 213.527C48.3469 213.563 48.3249 213.598 48.3037 213.634C48.3072 213.628 48.3109 213.622 48.3145 213.616ZM49.1133 212.32C49.0038 212.492 48.8958 212.665 48.7881 212.839C48.8959 212.665 49.0037 212.492 49.1133 212.32ZM70.458 194.04C70.274 194.116 70.0905 194.194 69.9072 194.272C70.0906 194.194 70.274 194.116 70.458 194.04Z"
    />
  </mask>
  <path
    d="M446.775 382.095C465.832 381.906 481.434 397.202 481.623 416.259C481.812 435.316 466.515 450.918 447.458 451.107C428.401 451.296 412.8 435.999 412.611 416.942C412.423 397.885 427.718 382.284 446.775 382.095ZM312.279 61C313.085 60.9767 313.825 61.4392 314.158 62.1729L439.709 338.857C439.99 339.476 439.936 340.196 439.568 340.768C439.2 341.339 438.567 341.684 437.888 341.685H282.419L273.821 363.092H355.043C356.147 363.092 357.043 363.987 357.043 365.092V434.419H378.713V353.903C378.713 352.799 379.609 351.904 380.713 351.903H388.647C389.752 351.903 390.647 352.799 390.647 353.903V444.344C390.647 445.448 389.752 446.344 388.647 446.344H346.875C345.771 446.344 344.875 445.448 344.875 444.344V375.017H258.431C257.761 375.017 257.134 374.681 256.764 374.123C256.393 373.565 256.327 372.859 256.587 372.241L273.855 331.216C274.168 330.474 274.895 329.992 275.699 329.992H421.949L312.726 89.1621L235.563 290.518C235.558 290.533 235.55 290.548 235.544 290.563C234.326 293.518 233.05 295.764 231.35 297.527C229.631 299.309 227.601 300.471 225.088 301.454C224.973 301.499 224.853 301.534 224.731 301.557C221.581 302.155 218.927 302.288 216.293 301.539C213.679 300.795 211.307 299.245 208.589 296.914C208.474 296.816 208.371 296.705 208.281 296.584L149.94 217.564C149.523 216.999 149.433 216.256 149.703 215.607C149.974 214.959 150.565 214.499 151.26 214.397C166.359 212.189 176.871 209.317 185.446 204.431C193.945 199.587 200.705 192.669 208.13 182.068C213.704 168.836 218.124 157.536 218.966 145.884C219.803 134.281 217.095 122.164 207.984 107.405C196.68 89.093 172.617 75.2703 150.988 75.7207C150.974 75.721 150.96 75.7217 150.946 75.7217H43.168V165.797L65.3047 154.544V98.4297C65.3049 97.3253 66.2003 96.4297 67.3047 96.4297H150.616L150.797 96.4375C160.241 97.2974 167.242 98.9941 173.279 102.564C178.934 105.909 183.573 110.797 188.586 117.772L189.594 119.195L189.684 119.336C189.711 119.384 189.737 119.433 189.761 119.482C194.479 129.417 196.99 137.322 197.007 145.183C197.023 153.063 194.533 160.657 189.732 169.974C189.692 170.053 189.645 170.13 189.594 170.203C186.838 174.145 183.308 179.356 177.362 183.826C171.383 188.322 163.075 191.995 150.811 193.192C150.746 193.199 150.681 193.202 150.616 193.202H82.7725C64.7186 194.214 46.205 210.405 43.168 234.922V313.675H65.3047V234.791C65.3047 234.617 65.3273 234.443 65.3721 234.275C66.8323 228.802 68.5595 224.695 71.501 221.513C74.45 218.322 78.428 216.265 83.957 214.474L84.1084 214.432C84.2604 214.395 84.4166 214.376 84.5732 214.376H120.045C120.68 214.376 121.278 214.679 121.655 215.19L191.605 310.213C210.491 331.442 241.817 327.016 254.036 301.571L310.725 165.724L310.788 165.587C311.128 164.919 311.817 164.493 312.575 164.494C313.383 164.496 314.112 164.984 314.42 165.731L376.728 316.777C376.982 317.394 376.912 318.098 376.541 318.652C376.17 319.207 375.546 319.54 374.879 319.54H366.012C365.203 319.54 364.474 319.053 364.164 318.307L312.568 194.08L208.143 445.112C207.832 445.858 207.104 446.344 206.296 446.344H161.584C160.919 446.344 160.298 446.014 159.926 445.463C159.554 444.912 159.48 444.211 159.729 443.595L199.868 344.296L199.944 344.13C200.358 343.325 201.271 342.891 202.168 343.096L210.336 344.96C210.908 345.091 211.394 345.467 211.665 345.988C211.936 346.51 211.964 347.124 211.741 347.668L176.232 434.419H198.991L242.45 330.498C236.127 333.365 227.336 335.429 217.971 335.156C205.54 334.794 191.879 330.308 181.518 317.889C181.49 317.855 181.462 317.821 181.437 317.785L114.827 226.302H85.6191C83.5196 226.657 81.6696 228 80.2695 229.986C78.844 232.01 77.9928 234.56 77.8887 236.943L77.2393 323.149C77.2309 324.248 76.3377 325.134 75.2393 325.134H33C31.8954 325.134 31 324.238 31 323.134V234.791C31 234.711 31.005 234.63 31.0146 234.55C32.0508 226.021 33.6167 219.505 36.5303 213.449C39.44 207.402 43.634 201.937 49.7441 195.428L49.8379 195.334C49.8698 195.304 49.9027 195.275 49.9365 195.247C55.3423 190.829 59.8959 187.787 64.9287 185.596C69.9575 183.406 75.3622 182.112 82.4131 181.065L82.5596 181.049C82.6084 181.045 82.658 181.044 82.707 181.044H147.683C169.104 181.044 178.356 165.197 180.88 160.43C182.887 156.638 184.893 151.561 184.776 145.173C184.66 138.8 182.428 130.913 175.602 121.516C175.594 121.505 175.586 121.494 175.578 121.483C172.189 116.615 169.195 113.653 165.529 111.74C161.842 109.816 157.275 108.85 150.532 108.354H77.2393V162.531C77.2392 163.272 76.829 163.952 76.1748 164.299L33.9365 186.676C33.3167 187.004 32.5698 186.984 31.9688 186.622C31.3677 186.26 31 185.61 31 184.908V65.0967C31.0004 63.9924 31.8956 63.0967 33 63.0967H150.616C167.455 63.0968 183.447 67.6592 199.947 80.292C215.212 91.979 227.276 111.033 229.649 128.226C231.348 140.536 231.531 148.914 230.322 156.449C229.116 163.971 226.538 170.533 222.938 179.152C222.913 179.211 222.885 179.269 222.855 179.325L217.744 188.882C217.718 188.931 217.689 188.98 217.658 189.027L212.063 197.651C212.039 197.689 212.012 197.727 211.985 197.763C209.869 200.584 207.647 204.159 199.747 210.479C192.235 216.488 181.743 219.955 169.332 223.561L217.134 288.343C219.615 290.042 220.686 290.089 221.258 289.878C221.596 289.753 222.059 289.44 222.66 288.664C223.255 287.895 223.893 286.792 224.624 285.271L310.471 62.2803L310.53 62.1426C310.85 61.4675 311.524 61.0221 312.279 61ZM201.723 345.046L209.89 346.91L173.252 436.419L209.891 346.91L201.723 345.045V345.046ZM446.865 397.734C436.483 397.837 428.149 406.338 428.252 416.721C428.355 427.103 436.856 435.437 447.238 435.334C457.62 435.23 465.954 426.73 465.852 416.348C465.749 405.966 457.248 397.632 446.865 397.734ZM215.621 325.436C216.209 325.51 216.797 325.571 217.386 325.617C217.19 325.602 216.994 325.584 216.798 325.565C216.406 325.528 216.014 325.485 215.622 325.436H215.621ZM229.605 324.594V324.595V324.594ZM205.341 322.644C205.432 322.683 205.524 322.721 205.616 322.759C205.524 322.721 205.432 322.683 205.341 322.644ZM204.63 322.334C204.661 322.348 204.693 322.361 204.725 322.375C204.693 322.361 204.661 322.348 204.63 322.334ZM203.678 321.891C203.746 321.923 203.814 321.956 203.882 321.988C203.814 321.956 203.746 321.923 203.678 321.891ZM84.5732 216.376C84.0678 216.54 83.5782 216.706 83.1035 216.873C83.5782 216.706 84.0679 216.541 84.5732 216.377H120.045L190.054 311.479C190.209 311.654 190.366 311.827 190.522 311.999C190.366 311.827 190.21 311.654 190.055 311.479L120.045 216.376H84.5732ZM224.99 299.336C224.785 299.422 224.574 299.507 224.358 299.592C224.105 299.64 223.858 299.684 223.614 299.725C223.677 299.714 223.74 299.704 223.803 299.693L224.359 299.592C224.575 299.508 224.785 299.422 224.99 299.336ZM76.043 235.317C75.9621 235.844 75.9101 236.369 75.8887 236.889H75.8896C75.9039 236.542 75.9318 236.194 75.9727 235.844C75.9931 235.668 76.017 235.493 76.0439 235.317H76.043ZM155.083 215.832C155.745 215.725 156.398 215.618 157.043 215.508C156.398 215.618 155.745 215.725 155.083 215.832ZM48.3037 213.634C48.1545 213.884 48.0078 214.137 47.8623 214.391C48.0079 214.137 48.1545 213.884 48.3037 213.634ZM166.915 213.507C166.15 213.691 165.371 213.871 164.578 214.046L165.758 213.78C166.147 213.691 166.533 213.599 166.915 213.507ZM49.1133 212.32C49.4089 211.857 49.7114 211.4 50.0195 210.949H50.0186C49.7105 211.4 49.4088 211.857 49.1133 212.32ZM53.0586 206.952C52.9044 207.135 52.7516 207.32 52.5996 207.506C52.7516 207.32 52.9044 207.135 53.0586 206.952ZM53.8271 206.06C53.6204 206.293 53.4159 206.53 53.2129 206.769C53.4158 206.53 53.6206 206.294 53.8271 206.061V206.06ZM51.2021 196.796C50.8243 197.198 50.4542 197.597 50.0918 197.991L51.2021 196.797C51.5352 196.525 51.8643 196.257 52.1904 195.996C51.8644 196.257 51.5351 196.524 51.2021 196.796ZM67.2363 195.532C66.8326 195.74 66.4314 195.956 66.0322 196.178C66.4314 195.956 66.8326 195.74 67.2363 195.532ZM67.8037 195.247C67.6695 195.314 67.5351 195.38 67.4014 195.448C67.5351 195.38 67.6695 195.314 67.8037 195.247ZM69.9072 194.272C69.2656 194.548 68.6284 194.841 67.9961 195.151C68.6284 194.841 69.2655 194.548 69.9072 194.272ZM71.0996 193.782C70.9172 193.854 70.7355 193.928 70.5537 194.002C70.7355 193.928 70.9172 193.854 71.0996 193.782ZM72.832 193.147C72.278 193.336 71.7265 193.538 71.1777 193.752C71.7266 193.538 72.278 193.336 72.832 193.147ZM73.7178 192.858C73.4524 192.942 73.1872 193.027 72.9229 193.116C73.1872 193.027 73.4524 192.942 73.7178 192.858ZM74.6582 192.575C74.3904 192.652 74.1233 192.733 73.8564 192.815C74.1233 192.733 74.3904 192.652 74.6582 192.575ZM152.777 190.959C152.072 191.049 151.351 191.13 150.615 191.202H150.616C150.989 191.166 151.358 191.127 151.724 191.086C152.079 191.046 152.43 191.003 152.777 190.959ZM75.2383 162.531H75.2393V106.355H75.2383V162.531ZM175.189 117.594C175.015 117.373 174.841 117.157 174.667 116.944C174.841 117.157 175.015 117.373 175.189 117.594ZM174.473 116.71C174.343 116.554 174.214 116.4 174.085 116.249C174.214 116.4 174.343 116.554 174.473 116.71ZM197.623 81.043C197.992 81.3176 198.361 81.5969 198.73 81.8799H198.731C198.362 81.5968 197.992 81.3176 197.623 81.043ZM150.615 65.0977C151.639 65.0977 152.659 65.1141 153.677 65.1494C153.169 65.1318 152.661 65.1191 152.152 65.1104C151.641 65.1016 151.129 65.0967 150.616 65.0967H33L150.615 65.0977ZM152.96 216.166L154.346 215.952C154.57 215.917 154.793 215.88 155.016 215.844C154.34 215.953 153.654 216.061 152.96 216.166ZM48.6904 212.995C48.5818 213.171 48.4749 213.349 48.3682 213.527C48.4749 213.349 48.5818 213.171 48.6904 212.995ZM48.3145 213.616C48.3322 213.586 48.3504 213.557 48.3682 213.527C48.3469 213.563 48.3249 213.598 48.3037 213.634C48.3072 213.628 48.3109 213.622 48.3145 213.616ZM49.1133 212.32C49.0038 212.492 48.8958 212.665 48.7881 212.839C48.8959 212.665 49.0037 212.492 49.1133 212.32ZM70.458 194.04C70.274 194.116 70.0905 194.194 69.9072 194.272C70.0906 194.194 70.274 194.116 70.458 194.04Z"
    fill="white"
  />
  <path
    d="M446.775 382.095L446.726 377.095H446.726L446.775 382.095ZM481.623 416.259L486.623 416.209V416.209L481.623 416.259ZM447.458 451.107L447.507 456.107H447.508L447.458 451.107ZM412.611 416.942L407.612 416.992V416.992L412.611 416.942ZM312.279 61L312.135 56.0021L312.133 56.0021L312.279 61ZM314.158 62.1729L318.711 60.1068L318.711 60.1061L314.158 62.1729ZM439.709 338.857L444.262 336.791L444.262 336.791L439.709 338.857ZM439.568 340.768L443.771 343.477L443.772 343.475L439.568 340.768ZM437.888 341.685V346.685H437.889L437.888 341.685ZM282.419 341.685V336.685H279.039L277.779 339.821L282.419 341.685ZM273.821 363.092L269.182 361.228L266.425 368.092H273.821V363.092ZM355.043 363.092L355.043 358.092H355.043V363.092ZM357.043 365.092H362.043V365.091L357.043 365.092ZM357.043 434.419H352.043V439.419H357.043V434.419ZM378.713 434.419V439.419H383.713V434.419H378.713ZM378.713 353.903L373.713 353.902V353.903H378.713ZM380.713 351.903V346.903H380.712L380.713 351.903ZM388.647 351.903L388.648 346.903H388.647V351.903ZM390.647 353.903H395.647V353.902L390.647 353.903ZM388.647 446.344V451.344H388.648L388.647 446.344ZM346.875 446.344L346.874 451.344H346.875V446.344ZM344.875 375.017H349.875V370.017H344.875V375.017ZM256.764 374.123L252.598 376.888L252.598 376.889L256.764 374.123ZM256.587 372.241L251.979 370.301L251.978 370.302L256.587 372.241ZM273.855 331.216L269.248 329.275L269.247 329.276L273.855 331.216ZM421.949 329.992V334.992H429.707L426.503 327.927L421.949 329.992ZM312.726 89.1621L317.279 87.0969L312.338 76.2014L308.057 87.3729L312.726 89.1621ZM235.563 290.518L240.231 292.31L240.232 292.307L235.563 290.518ZM235.544 290.563L230.925 288.649L230.921 288.658L235.544 290.563ZM231.35 297.527L234.948 300.999L234.948 300.998L231.35 297.527ZM225.088 301.454L223.266 296.798L223.266 296.798L225.088 301.454ZM224.731 301.557L225.664 306.469L225.665 306.469L224.731 301.557ZM216.293 301.539L214.925 306.348L214.925 306.348L216.293 301.539ZM208.589 296.914L205.334 300.71L205.334 300.71L208.589 296.914ZM208.281 296.584L204.259 299.554L204.259 299.554L208.281 296.584ZM149.94 217.564L145.918 220.534L145.918 220.534L149.94 217.564ZM149.703 215.607L145.088 213.683L145.087 213.685L149.703 215.607ZM151.26 214.397L150.536 209.45H150.536L151.26 214.397ZM185.446 204.431L187.922 208.775L187.922 208.775L185.446 204.431ZM208.13 182.068L212.225 184.937L212.531 184.501L212.738 184.01L208.13 182.068ZM218.966 145.884L223.953 146.244V146.244L218.966 145.884ZM207.984 107.405L212.239 104.779L212.239 104.779L207.984 107.405ZM150.988 75.7207L151.092 80.7196V80.7196L150.988 75.7207ZM150.946 75.7217V80.7217L150.949 80.7217L150.946 75.7217ZM43.168 75.7217V70.7217H38.168V75.7217H43.168ZM43.168 165.797H38.168V173.948L45.4337 170.254L43.168 165.797ZM65.3047 154.544L67.5704 159.001L70.3047 157.611V154.544H65.3047ZM65.3047 98.4297L60.3047 98.4286V98.4297H65.3047ZM150.616 96.4297L150.832 91.4344L150.724 91.4297H150.616V96.4297ZM150.797 96.4375L151.25 91.4581L151.132 91.4473L151.013 91.4422L150.797 96.4375ZM173.279 102.564L175.825 98.2608L175.825 98.2607L173.279 102.564ZM188.586 117.772L192.666 114.882L192.656 114.868L192.646 114.854L188.586 117.772ZM189.594 119.195L193.807 116.503L193.743 116.403L193.674 116.305L189.594 119.195ZM189.684 119.336L194.007 116.824L193.954 116.733L193.897 116.644L189.684 119.336ZM189.761 119.482L194.277 117.337L194.277 117.336L189.761 119.482ZM197.007 145.183L202.007 145.172V145.172L197.007 145.183ZM189.732 169.974L194.177 172.264L194.177 172.264L189.732 169.974ZM189.594 170.203L193.692 173.068L193.694 173.065L189.594 170.203ZM177.362 183.826L180.367 187.823L180.367 187.823L177.362 183.826ZM150.811 193.192L151.296 198.169L151.296 198.169L150.811 193.192ZM150.616 193.202V198.202H150.618L150.616 193.202ZM82.7725 193.202V188.202H82.6324L82.4926 188.21L82.7725 193.202ZM43.168 234.922L38.2059 234.307L38.168 234.613V234.922H43.168ZM43.168 313.675H38.168V318.675H43.168V313.675ZM65.3047 313.675V318.675H70.3047V313.675H65.3047ZM65.3047 234.791L60.3047 234.79V234.791H65.3047ZM65.3721 234.275L60.541 232.987L60.541 232.987L65.3721 234.275ZM71.501 221.513L67.8292 218.119L67.829 218.119L71.501 221.513ZM83.957 214.474L82.6204 209.656L82.5176 209.684L82.4161 209.717L83.957 214.474ZM84.1084 214.432L82.9459 209.569L82.8584 209.59L82.7718 209.614L84.1084 214.432ZM84.5732 214.376V209.376H84.5725L84.5732 214.376ZM120.045 214.376L120.045 209.376H120.045V214.376ZM121.655 215.19L125.682 212.226L125.681 212.225L121.655 215.19ZM191.605 310.213L187.579 313.177L187.716 313.363L187.87 313.536L191.605 310.213ZM254.036 301.571L258.543 303.736L258.6 303.618L258.65 303.497L254.036 301.571ZM310.725 165.724L306.19 163.618L306.148 163.707L306.11 163.798L310.725 165.724ZM310.788 165.587L306.331 163.32L306.291 163.4L306.253 163.481L310.788 165.587ZM312.575 164.494L312.587 159.494H312.585L312.575 164.494ZM314.42 165.731L319.042 163.825L319.042 163.824L314.42 165.731ZM376.728 316.777L381.35 314.871V314.871L376.728 316.777ZM376.541 318.652L380.696 321.434L380.697 321.432L376.541 318.652ZM374.879 319.54V324.54H374.879L374.879 319.54ZM364.164 318.307L359.547 320.224V320.225L364.164 318.307ZM312.568 194.08L317.186 192.162L312.572 181.053L307.952 192.16L312.568 194.08ZM208.143 445.112L203.526 443.192V443.192L208.143 445.112ZM206.296 446.344V451.344H206.297L206.296 446.344ZM159.926 445.463L155.78 448.258L155.781 448.259L159.926 445.463ZM159.729 443.595L155.094 441.721L155.094 441.721L159.729 443.595ZM199.868 344.296L195.324 342.211L195.276 342.315L195.233 342.422L199.868 344.296ZM199.944 344.13L195.498 341.843L195.447 341.943L195.4 342.045L199.944 344.13ZM202.168 343.096L201.055 347.97L201.055 347.97L202.168 343.096ZM210.336 344.96L211.45 340.086L211.449 340.085L210.336 344.96ZM211.665 345.988L216.103 343.684L216.102 343.683L211.665 345.988ZM211.741 347.668L216.369 349.562L216.369 349.561L211.741 347.668ZM176.232 434.419L171.605 432.525L168.783 439.419H176.232V434.419ZM198.991 434.419V439.419H202.32L203.604 436.348L198.991 434.419ZM242.45 330.498L247.063 332.427L251.971 320.692L240.386 325.944L242.45 330.498ZM217.971 335.156L217.825 340.154H217.825L217.971 335.156ZM181.518 317.889L177.678 321.091L177.678 321.092L181.518 317.889ZM181.437 317.785L185.479 314.842L185.479 314.842L181.437 317.785ZM114.827 226.302L118.869 223.359L117.372 221.302H114.827V226.302ZM85.6191 226.302V221.302H85.1987L84.7842 221.372L85.6191 226.302ZM80.2695 229.986L76.1824 227.106L76.1822 227.106L80.2695 229.986ZM77.8887 236.943L72.8934 236.725L72.8895 236.815L72.8888 236.906L77.8887 236.943ZM77.2393 323.149L82.2391 323.187L82.2391 323.187L77.2393 323.149ZM75.2393 325.134V330.134H75.2405L75.2393 325.134ZM31 234.791L26 234.79V234.791H31ZM31.0146 234.55L26.0511 233.947L26.0511 233.947L31.0146 234.55ZM36.5303 213.449L32.0247 211.281L32.0246 211.281L36.5303 213.449ZM49.7441 195.428L46.2086 191.892L46.1527 191.948L46.0986 192.006L49.7441 195.428ZM49.8379 195.334L46.4271 191.678L46.3637 191.737L46.3024 191.798L49.8379 195.334ZM49.9365 195.247L46.7726 191.375L46.7724 191.376L49.9365 195.247ZM64.9287 185.596L62.9327 181.011L62.9327 181.011L64.9287 185.596ZM82.4131 181.065L81.85 176.097L81.7643 176.107L81.679 176.12L82.4131 181.065ZM82.5596 181.049L82.1927 176.062L82.0944 176.07L81.9965 176.081L82.5596 181.049ZM147.683 181.044V186.044H147.683L147.683 181.044ZM180.88 160.43L185.299 162.769L185.299 162.769L180.88 160.43ZM184.776 145.173L189.776 145.082L189.776 145.082L184.776 145.173ZM175.602 121.516L179.647 118.577L179.646 118.576L175.602 121.516ZM175.578 121.483L171.475 124.34L171.476 124.342L175.578 121.483ZM165.529 111.74L167.842 107.307L167.842 107.307L165.529 111.74ZM150.532 108.354L150.898 103.368L150.716 103.354H150.532V108.354ZM77.2393 108.354V103.354H72.2393V108.354H77.2393ZM77.2393 162.531L82.2393 162.532V162.531H77.2393ZM76.1748 164.299L78.5155 168.717L78.5164 168.717L76.1748 164.299ZM33.9365 186.676L36.2772 191.094L36.2772 191.094L33.9365 186.676ZM31.9688 186.622L29.3902 190.906L29.3908 190.906L31.9688 186.622ZM31 65.0967L26 65.0951V65.0967H31ZM150.616 63.0967L150.616 58.0967H150.616V63.0967ZM199.947 80.292L202.987 76.322L202.987 76.322L199.947 80.292ZM229.649 128.226L234.602 127.542V127.542L229.649 128.226ZM230.322 156.449L235.259 157.241L235.259 157.241L230.322 156.449ZM222.938 179.152L218.324 177.225L218.324 177.226L222.938 179.152ZM222.855 179.325L227.264 181.683L227.265 181.682L222.855 179.325ZM217.744 188.882L222.153 191.24L222.153 191.24L217.744 188.882ZM217.658 189.027L221.853 191.749L221.854 191.747L217.658 189.027ZM212.063 197.651L207.869 194.93L207.869 194.93L212.063 197.651ZM211.985 197.763L215.985 200.763L215.986 200.762L211.985 197.763ZM199.747 210.479L202.871 214.383L202.871 214.383L199.747 210.479ZM169.332 223.561L167.937 218.759L161.051 220.759L165.309 226.529L169.332 223.561ZM217.134 288.343L213.111 291.311L213.612 291.991L214.308 292.468L217.134 288.343ZM221.258 289.878L222.991 294.568L222.993 294.567L221.258 289.878ZM222.66 288.664L226.613 291.725L226.614 291.725L222.66 288.664ZM224.624 285.271L229.13 287.438L229.218 287.256L229.29 287.068L224.624 285.271ZM310.471 62.2803L305.882 60.295L305.841 60.3887L305.805 60.4839L310.471 62.2803ZM310.53 62.1426L306.012 60.0015L305.975 60.0788L305.941 60.1573L310.53 62.1426ZM201.723 345.046H196.723V349.033L200.61 349.921L201.723 345.046ZM209.89 346.91L214.517 348.804L216.75 343.348L211.002 342.036L209.89 346.91ZM173.252 436.419L168.625 434.525L177.879 438.313L173.252 436.419ZM209.891 346.91L214.518 348.804L216.751 343.348L211.004 342.036L209.891 346.91ZM201.723 345.045L202.836 340.17L196.723 338.774V345.045H201.723ZM446.865 397.734L446.816 392.735H446.816L446.865 397.734ZM428.252 416.721L423.252 416.77V416.77L428.252 416.721ZM447.238 435.334L447.288 440.334L447.288 440.334L447.238 435.334ZM465.852 416.348L470.851 416.298V416.298L465.852 416.348ZM215.621 325.436V320.436L214.992 330.396L215.621 325.436ZM217.386 325.617L216.99 330.602L217.783 320.633L217.386 325.617ZM216.798 325.565L217.272 320.588H217.272L216.798 325.565ZM215.622 325.436L216.251 320.475L215.938 320.436H215.622V325.436ZM205.341 322.644L207.297 318.042L203.384 327.245L205.341 322.644ZM205.616 322.759L203.695 327.375L207.539 318.143L205.616 322.759ZM204.63 322.334L206.673 317.771L202.585 326.897L204.63 322.334ZM204.725 322.375L202.693 326.944L206.758 317.807L204.725 322.375ZM203.678 321.891L205.842 317.383L201.513 326.398L203.678 321.891ZM203.882 321.988L201.743 326.508L206.021 317.469L203.882 321.988ZM84.5732 216.376V211.376H83.7836L83.0323 211.619L84.5732 216.376ZM83.1035 216.873L81.4396 212.158L84.7653 221.589L83.1035 216.873ZM84.5732 216.377V211.377H83.7836L83.0323 211.62L84.5732 216.377ZM120.045 216.377L124.072 213.413L122.573 211.377H120.045V216.377ZM190.054 311.479L186.027 314.444L186.162 314.626L186.312 314.796L190.054 311.479ZM190.522 311.999L186.832 315.373L194.216 308.628L190.522 311.999ZM190.055 311.479L186.028 314.444L186.163 314.626L186.313 314.796L190.055 311.479ZM120.045 216.376L124.072 213.412L122.573 211.376H120.045V216.376ZM224.99 299.336L226.929 303.945L223.053 294.726L224.99 299.336ZM224.358 299.592L225.291 304.504L225.747 304.417L226.18 304.248L224.358 299.592ZM223.803 299.693L224.66 304.619L224.68 304.616L224.7 304.612L223.803 299.693ZM224.359 299.592L225.257 304.511L225.732 304.424L226.181 304.248L224.359 299.592ZM76.043 235.317V230.317H71.7524L71.1009 234.558L76.043 235.317ZM75.8887 236.889L70.8929 236.682L70.678 241.889H75.8887V236.889ZM75.8896 236.889V241.889H80.6875L80.8854 237.095L75.8896 236.889ZM75.9727 235.844L71.0064 235.264V235.264L75.9727 235.844ZM76.0439 235.317L80.986 236.077L81.8707 230.317H76.0439V235.317ZM155.083 215.832L154.284 210.896L155.88 220.768L155.083 215.832ZM47.8623 214.391L43.524 211.905L52.1999 216.878L47.8623 214.391ZM166.915 213.507L168.085 218.368L165.745 208.646L166.915 213.507ZM164.578 214.046L163.48 209.168L165.655 218.929L164.578 214.046ZM165.758 213.78L166.856 218.658L166.868 218.655L166.88 218.653L165.758 213.78ZM50.0195 210.949L54.1464 213.772L59.4975 205.949H50.0195V210.949ZM50.0186 210.949V205.949H47.3808L45.8916 208.126L50.0186 210.949ZM53.0586 206.952L56.8834 210.173L49.235 203.73L53.0586 206.952ZM52.5996 207.506L48.7285 204.341L56.4699 210.671L52.5996 207.506ZM53.8271 206.06H58.8271V192.858L50.0817 202.747L53.8271 206.06ZM53.2129 206.769L49.4039 203.529L57.0207 210.009L53.2129 206.769ZM53.8271 206.061L57.5727 209.373L58.8271 207.954V206.061H53.8271ZM51.2021 196.796L48.0382 192.924L47.7826 193.133L47.5567 193.374L51.2021 196.796ZM50.0918 197.991L46.4118 194.606L53.7537 201.396L50.0918 197.991ZM51.2021 196.797L48.0382 192.925L47.7732 193.142L47.5402 193.392L51.2021 196.797ZM67.2363 195.532L69.527 199.977L64.9461 191.088L67.2363 195.532ZM67.8037 195.247L70.0279 199.725L65.58 190.769L67.8037 195.247ZM67.4014 195.448L65.13 190.994L69.6723 199.903L67.4014 195.448ZM67.9961 195.151L65.7946 190.662L70.1971 199.641L67.9961 195.151ZM71.0996 193.782L72.9269 198.436L69.2728 189.128L71.0996 193.782ZM70.5537 194.002L68.6594 189.375L72.4474 198.629L70.5537 194.002ZM72.832 193.147L74.4431 197.881L71.221 188.414L72.832 193.147ZM71.1777 193.752L69.3601 189.094L72.995 198.41L71.1777 193.752ZM73.7178 192.858L75.2166 197.628L72.2193 188.088L73.7178 192.858ZM72.9229 193.116L71.3233 188.379L74.5221 197.854L72.9229 193.116ZM73.8564 192.815L72.3754 188.04L75.3371 197.591L73.8564 192.815ZM150.615 191.202L150.129 186.226L150.615 196.202V191.202ZM150.616 191.202V196.202H150.86L151.102 196.178L150.616 191.202ZM151.724 191.086L152.282 196.055L151.724 191.086ZM75.2383 162.531H70.2383V167.531H75.2383V162.531ZM75.2393 162.531V167.531H80.2393V162.531H75.2393ZM75.2393 106.355H80.2393V101.355H75.2393V106.355ZM75.2383 106.355V101.355H70.2383V106.355H75.2383ZM175.189 117.594L171.263 120.69L179.116 114.498L175.189 117.594ZM174.667 116.944L178.537 113.779L170.796 120.109L174.667 116.944ZM174.473 116.71L170.625 119.903L178.321 113.517L174.473 116.71ZM174.085 116.249L177.882 112.996L170.286 119.5L174.085 116.249ZM197.623 81.043L200.607 77.0308L194.638 85.0542L197.623 81.043ZM198.73 81.8799L195.691 85.8499L197.036 86.8799H198.73V81.8799ZM198.731 81.8799V86.8799H213.487L201.771 77.9099L198.731 81.8799ZM150.615 65.0977L150.615 70.0977H150.615V65.0977ZM152.152 65.1104L152.067 70.1096L152.152 65.1104ZM150.616 65.0967L150.616 60.0967H150.616V65.0967ZM33 65.0967V60.0967L33 70.0967L33 65.0967ZM152.96 216.166L152.197 211.225L153.711 221.109L152.96 216.166ZM154.346 215.952L155.108 220.894L155.117 220.892L155.126 220.891L154.346 215.952ZM155.016 215.844L155.813 220.78L154.22 210.907L155.016 215.844ZM48.6904 212.995L52.9481 215.617L44.4331 210.373L48.6904 212.995ZM48.3145 213.616L52.6086 216.178L52.6086 216.178L48.3145 213.616ZM48.7881 212.839L44.5399 210.202L53.0359 215.476L48.7881 212.839ZM70.458 194.04L72.364 198.663L68.5527 189.417L70.458 194.04ZM446.775 382.095L446.825 387.094C463.121 386.933 476.462 400.013 476.623 416.308L481.623 416.259L486.623 416.209C486.406 394.391 468.544 376.879 446.726 377.095L446.775 382.095ZM481.623 416.259L476.623 416.308C476.784 432.604 463.704 445.946 447.408 446.108L447.458 451.107L447.508 456.107C469.326 455.891 486.839 438.028 486.623 416.209L481.623 416.259ZM447.458 451.107L447.409 446.108C431.113 446.269 417.773 433.189 417.611 416.893L412.611 416.942L407.612 416.992C407.828 438.81 425.689 456.323 447.507 456.107L447.458 451.107ZM412.611 416.942L417.611 416.893C417.45 400.597 430.529 387.256 446.825 387.094L446.775 382.095L446.726 377.095C424.907 377.311 407.396 395.173 407.612 416.992L412.611 416.942ZM312.279 61L312.424 65.9979C311.214 66.033 310.104 65.3382 309.605 64.2396L314.158 62.1729L318.711 60.1061C317.546 57.5403 314.955 55.9204 312.135 56.0021L312.279 61ZM314.158 62.1729L309.605 64.2389L435.156 340.924L439.709 338.857L444.262 336.791L318.711 60.1068L314.158 62.1729ZM439.709 338.857L435.156 340.923C434.733 339.991 434.815 338.914 435.365 338.06L439.568 340.768L443.772 343.475C445.057 341.479 445.247 338.961 444.262 336.791L439.709 338.857ZM439.568 340.768L435.366 338.059C435.916 337.204 436.864 336.685 437.887 336.685L437.888 341.685L437.889 346.685C440.27 346.684 442.484 345.473 443.771 343.477L439.568 340.768ZM437.888 341.685V336.685H282.419V341.685V346.685H437.888V341.685ZM282.419 341.685L277.779 339.821L269.182 361.228L273.821 363.092L278.461 364.955L287.059 343.548L282.419 341.685ZM273.821 363.092V368.092H355.043V363.092V358.092H273.821V363.092ZM355.043 363.092L355.042 368.092C353.385 368.092 352.043 366.749 352.043 365.093L357.043 365.092L362.043 365.091C362.042 361.226 358.909 358.092 355.043 358.092L355.043 363.092ZM357.043 365.092H352.043V434.419H357.043H362.043V365.092H357.043ZM357.043 434.419V439.419H378.713V434.419V429.419H357.043V434.419ZM378.713 434.419H383.713V353.903H378.713H373.713V434.419H378.713ZM378.713 353.903L383.713 353.904C383.713 355.56 382.371 356.903 380.714 356.903L380.713 351.903L380.712 346.903C376.847 346.904 373.714 350.038 373.713 353.902L378.713 353.903ZM380.713 351.903V356.903H388.647V351.903V346.903H380.713V351.903ZM388.647 351.903L388.647 356.903C386.99 356.903 385.648 355.56 385.647 353.904L390.647 353.903L395.647 353.902C395.647 350.038 392.514 346.904 388.648 346.903L388.647 351.903ZM390.647 353.903H385.647V444.344H390.647H395.647V353.903H390.647ZM390.647 444.344H385.647C385.647 442.686 386.991 441.344 388.647 441.344L388.647 446.344L388.648 451.344C392.513 451.343 395.647 448.21 395.647 444.344H390.647ZM388.647 446.344V441.344H346.875V446.344V451.344H388.647V446.344ZM346.875 446.344L346.876 441.344C348.531 441.344 349.875 442.686 349.875 444.344H344.875H339.875C339.875 448.211 343.01 451.343 346.874 451.344L346.875 446.344ZM344.875 444.344H349.875V375.017H344.875H339.875V444.344H344.875ZM344.875 375.017V370.017H258.431V375.017V380.017H344.875V375.017ZM258.431 375.017V370.017C259.433 370.017 260.371 370.518 260.929 371.357L256.764 374.123L252.598 376.889C253.897 378.845 256.089 380.017 258.431 380.017V375.017ZM256.764 374.123L260.93 371.358C261.486 372.197 261.584 373.256 261.196 374.18L256.587 372.241L251.978 370.302C251.07 372.461 251.301 374.933 252.598 376.888L256.764 374.123ZM256.587 372.241L261.195 374.181L278.464 333.156L273.855 331.216L269.247 329.276L251.979 370.301L256.587 372.241ZM273.855 331.216L278.463 333.157C277.994 334.27 276.905 334.992 275.699 334.992V329.992V324.992C272.885 324.992 270.341 326.678 269.248 329.275L273.855 331.216ZM275.699 329.992V334.992H421.949V329.992V324.992H275.699V329.992ZM421.949 329.992L426.503 327.927L317.279 87.0969L312.726 89.1621L308.172 91.2273L417.396 332.057L421.949 329.992ZM312.726 89.1621L308.057 87.3729L230.895 288.728L235.563 290.518L240.232 292.307L317.395 90.9513L312.726 89.1621ZM235.563 290.518L230.896 288.726C230.918 288.667 230.938 288.619 230.951 288.588C230.963 288.558 230.973 288.536 230.975 288.532C230.976 288.53 230.977 288.527 230.975 288.532C230.974 288.535 230.97 288.542 230.966 288.552C230.959 288.569 230.943 288.605 230.925 288.649L235.544 290.563L240.163 292.478C240.148 292.514 240.136 292.542 240.131 292.553C240.129 292.558 240.127 292.562 240.128 292.561C240.128 292.56 240.128 292.56 240.128 292.56C240.128 292.559 240.129 292.558 240.129 292.557C240.13 292.556 240.131 292.553 240.133 292.549C240.138 292.538 240.151 292.508 240.167 292.47C240.183 292.431 240.206 292.376 240.231 292.31L235.563 290.518ZM235.544 290.563L230.921 288.658C229.819 291.333 228.834 292.933 227.751 294.056L231.35 297.527L234.948 300.998C237.266 298.595 238.833 295.703 240.166 292.469L235.544 290.563ZM231.35 297.527L227.751 294.056C226.695 295.15 225.369 295.975 223.266 296.798L225.088 301.454L226.91 306.11C229.833 304.967 232.566 303.469 234.948 300.999L231.35 297.527ZM225.088 301.454L223.266 296.798C223.441 296.729 223.619 296.679 223.798 296.644L224.731 301.557L225.665 306.469C226.087 306.389 226.505 306.269 226.91 306.11L225.088 301.454ZM224.731 301.557L223.799 296.644C220.997 297.176 219.225 297.175 217.661 296.73L216.293 301.539L214.925 306.348C218.629 307.402 222.164 307.133 225.664 306.469L224.731 301.557ZM216.293 301.539L217.661 296.73C216.067 296.276 214.346 295.264 211.843 293.118L208.589 296.914L205.334 300.71C208.268 303.225 211.291 305.315 214.925 306.348L216.293 301.539ZM208.589 296.914L211.843 293.118C212.006 293.258 212.162 293.423 212.304 293.614L208.281 296.584L204.259 299.554C204.579 299.988 204.943 300.374 205.334 300.71L208.589 296.914ZM208.281 296.584L212.304 293.614L153.963 214.595L149.94 217.564L145.918 220.534L204.259 299.554L208.281 296.584ZM149.94 217.564L153.963 214.595C154.589 215.443 154.724 216.556 154.319 217.53L149.703 215.607L145.087 213.685C144.142 215.956 144.458 218.556 145.918 220.534L149.94 217.564ZM149.703 215.607L154.318 217.532C153.913 218.502 153.029 219.192 151.983 219.345L151.26 214.397L150.536 209.45C148.1 209.806 146.034 211.416 145.088 213.683L149.703 215.607ZM151.26 214.397L151.983 219.345C167.303 217.105 178.542 214.12 187.922 208.775L185.446 204.431L182.971 200.087C175.201 204.514 165.415 207.274 150.536 209.45L151.26 214.397ZM185.446 204.431L187.922 208.775C197.297 203.432 204.564 195.874 212.225 184.937L208.13 182.068L204.035 179.2C196.846 189.463 190.593 195.743 182.971 200.087L185.446 204.431ZM208.13 182.068L212.738 184.01C218.281 170.851 223.044 158.832 223.953 146.244L218.966 145.884L213.979 145.524C213.205 156.24 209.128 166.821 203.522 180.127L208.13 182.068ZM218.966 145.884L223.953 146.244C224.878 133.434 221.811 120.285 212.239 104.779L207.984 107.405L203.73 110.032C212.379 124.044 214.729 135.129 213.979 145.524L218.966 145.884ZM207.984 107.405L212.239 104.779C200.058 85.0462 174.383 70.2325 150.884 70.7218L150.988 75.7207L151.092 80.7196C170.851 80.3082 193.302 93.1398 203.73 110.032L207.984 107.405ZM150.988 75.7207L150.884 70.7218C150.859 70.7223 150.838 70.7229 150.829 70.7232C150.824 70.7233 150.82 70.7235 150.819 70.7235C150.817 70.7236 150.818 70.7235 150.82 70.7235C150.824 70.7234 150.838 70.7229 150.858 70.7225C150.877 70.7222 150.907 70.7217 150.944 70.7217L150.946 75.7217L150.949 80.7217C150.992 80.7217 151.029 80.7211 151.056 80.7206C151.082 80.7201 151.104 80.7195 151.114 80.7191C151.12 80.719 151.125 80.7188 151.126 80.7188C151.129 80.7187 151.128 80.7187 151.127 80.7188C151.124 80.7188 151.111 80.7192 151.092 80.7196L150.988 75.7207ZM150.946 75.7217V70.7217H43.168V75.7217V80.7217H150.946V75.7217ZM43.168 75.7217H38.168V165.797H43.168H48.168V75.7217H43.168ZM43.168 165.797L45.4337 170.254L67.5704 159.001L65.3047 154.544L63.0389 150.087L40.9022 161.34L43.168 165.797ZM65.3047 154.544H70.3047V98.4297H65.3047H60.3047V154.544H65.3047ZM65.3047 98.4297L70.3047 98.4308C70.3043 100.086 68.9628 101.43 67.3047 101.43V96.4297V91.4297C63.4378 91.4297 60.3055 94.5648 60.3047 98.4286L65.3047 98.4297ZM67.3047 96.4297V101.43H150.616V96.4297V91.4297H67.3047V96.4297ZM150.616 96.4297L150.4 101.425L150.581 101.433L150.797 96.4375L151.013 91.4422L150.832 91.4344L150.616 96.4297ZM150.797 96.4375L150.343 101.417C159.452 102.246 165.611 103.838 170.734 106.868L173.279 102.564L175.825 98.2607C168.874 94.15 161.029 92.3485 151.25 91.4581L150.797 96.4375ZM173.279 102.564L170.734 106.868C175.543 109.712 179.702 113.979 184.526 120.69L188.586 117.772L192.646 114.854C187.443 107.615 182.325 102.105 175.825 98.2608L173.279 102.564ZM188.586 117.772L184.506 120.662L185.514 122.085L189.594 119.195L193.674 116.305L192.666 114.882L188.586 117.772ZM189.594 119.195L185.38 121.887L185.47 122.028L189.684 119.336L193.897 116.644L193.807 116.503L189.594 119.195ZM189.684 119.336L185.36 121.848C185.318 121.774 185.279 121.701 185.245 121.629L189.761 119.482L194.277 117.336C194.195 117.164 194.105 116.993 194.007 116.824L189.684 119.336ZM189.761 119.482L185.244 121.627C189.844 131.314 191.993 138.425 192.007 145.193L197.007 145.183L202.007 145.172C201.988 136.219 199.113 127.521 194.277 117.337L189.761 119.482ZM197.007 145.183L192.007 145.193C192.021 151.933 189.918 158.697 185.288 167.684L189.732 169.974L194.177 172.264C199.148 162.616 202.025 154.192 202.007 145.172L197.007 145.183ZM189.732 169.974L185.288 167.683C185.353 167.556 185.423 167.443 185.494 167.341L189.594 170.203L193.694 173.065C193.867 172.817 194.03 172.549 194.177 172.264L189.732 169.974ZM189.594 170.203L185.496 167.339C182.706 171.33 179.583 175.901 174.357 179.83L177.362 183.826L180.367 187.823C187.033 182.81 190.971 176.96 193.692 173.068L189.594 170.203ZM177.362 183.826L174.358 179.83C169.182 183.721 161.768 187.099 150.325 188.216L150.811 193.192L151.296 198.169C164.383 196.891 173.583 192.923 180.367 187.823L177.362 183.826ZM150.811 193.192L150.325 188.216C150.407 188.208 150.504 188.202 150.614 188.202L150.616 193.202L150.618 198.202C150.858 198.202 151.085 198.189 151.296 198.169L150.811 193.192ZM150.616 193.202V188.202H82.7725V193.202V198.202H150.616V193.202ZM82.7725 193.202L82.4926 188.21C61.7543 189.373 41.5055 207.67 38.2059 234.307L43.168 234.922L48.13 235.537C50.9045 213.139 67.683 199.056 83.0524 198.194L82.7725 193.202ZM43.168 234.922H38.168V313.675H43.168H48.168V234.922H43.168ZM43.168 313.675V318.675H65.3047V313.675V308.675H43.168V313.675ZM65.3047 313.675H70.3047V234.791H65.3047H60.3047V313.675H65.3047ZM65.3047 234.791L70.3047 234.792C70.3046 235.048 70.2717 235.307 70.2032 235.564L65.3721 234.275L60.541 232.987C60.3829 233.58 60.3048 234.186 60.3047 234.79L65.3047 234.791ZM65.3721 234.275L70.2031 235.564C71.5896 230.367 73.0548 227.198 75.1729 224.906L71.501 221.513L67.829 218.119C64.0643 222.193 62.0751 227.236 60.541 232.987L65.3721 234.275ZM71.501 221.513L75.1728 224.906C77.2794 222.627 80.318 220.908 85.4979 219.23L83.957 214.474L82.4161 209.717C76.5381 211.621 71.6206 214.017 67.8292 218.119L71.501 221.513ZM83.957 214.474L85.2936 219.292L85.445 219.25L84.1084 214.432L82.7718 209.614L82.6204 209.656L83.957 214.474ZM84.1084 214.432L85.2709 219.295C85.0604 219.345 84.8267 219.376 84.574 219.376L84.5732 214.376L84.5725 209.376C84.0064 209.376 83.4604 209.446 82.9459 209.569L84.1084 214.432ZM84.5732 214.376V219.376H120.045V214.376V209.376H84.5732V214.376ZM120.045 214.376L120.044 219.376C119.089 219.376 118.193 218.921 117.629 218.156L121.655 215.19L125.681 212.225C124.363 210.436 122.272 209.376 120.045 209.376L120.045 214.376ZM121.655 215.19L117.629 218.155L187.579 313.177L191.605 310.213L195.632 307.249L125.682 212.226L121.655 215.19ZM191.605 310.213L187.87 313.536C209.119 337.422 244.773 332.412 258.543 303.736L254.036 301.571L249.529 299.407C238.862 321.62 211.863 325.462 195.341 306.89L191.605 310.213ZM254.036 301.571L258.65 303.497L315.339 167.649L310.725 165.724L306.11 163.798L249.422 299.646L254.036 301.571ZM310.725 165.724L315.26 167.829L315.323 167.692L310.788 165.587L306.253 163.481L306.19 163.618L310.725 165.724ZM310.788 165.587L315.245 167.854C314.734 168.858 313.701 169.496 312.565 169.494L312.575 164.494L312.585 159.494C309.934 159.489 307.522 160.979 306.331 163.32L310.788 165.587ZM312.575 164.494L312.564 169.494C311.352 169.491 310.261 168.76 309.798 167.639L314.42 165.731L319.042 163.824C317.962 161.209 315.415 159.501 312.587 159.494L312.575 164.494ZM314.42 165.731L309.798 167.638L372.105 318.684L376.728 316.777L381.35 314.871L319.042 163.825L314.42 165.731ZM376.728 316.777L372.105 318.684C371.724 317.759 371.829 316.704 372.385 315.872L376.541 318.652L380.697 321.432C381.995 319.491 382.24 317.03 381.35 314.871L376.728 316.777ZM376.541 318.652L372.386 315.871C372.943 315.04 373.877 314.54 374.878 314.54L374.879 319.54L374.879 324.54C377.215 324.54 379.397 323.374 380.696 321.434L376.541 318.652ZM374.879 319.54V314.54H366.012V319.54V324.54H374.879V319.54ZM366.012 319.54V314.54C367.225 314.54 368.317 315.27 368.782 316.389L364.164 318.307L359.547 320.225C360.631 322.836 363.182 324.54 366.012 324.54V319.54ZM364.164 318.307L368.782 316.389L317.186 192.162L312.568 194.08L307.951 195.998L359.547 320.224L364.164 318.307ZM312.568 194.08L307.952 192.16L203.526 443.192L208.143 445.112L212.759 447.033L317.185 196L312.568 194.08ZM208.143 445.112L203.526 443.192C203.993 442.07 205.087 441.344 206.295 441.344L206.296 446.344L206.297 451.344C209.12 451.343 211.672 449.646 212.759 447.033L208.143 445.112ZM206.296 446.344V441.344H161.584V446.344V451.344H206.296V446.344ZM161.584 446.344V441.344C162.578 441.344 163.511 441.837 164.071 442.666L159.926 445.463L155.781 448.259C157.084 450.191 159.261 451.344 161.584 451.344V446.344ZM159.926 445.463L164.072 442.668C164.628 443.493 164.739 444.542 164.365 445.468L159.729 443.595L155.094 441.721C154.221 443.88 154.48 446.33 155.78 448.258L159.926 445.463ZM159.729 443.595L164.365 445.469L204.504 346.17L199.868 344.296L195.233 342.422L155.094 441.721L159.729 443.595ZM199.868 344.296L204.413 346.381L204.489 346.215L199.944 344.13L195.4 342.045L195.324 342.211L199.868 344.296ZM199.944 344.13L204.391 346.416C203.769 347.626 202.403 348.278 201.055 347.97L202.168 343.096L203.281 338.221C200.139 337.504 196.948 339.024 195.498 341.843L199.944 344.13ZM202.168 343.096L201.055 347.97L209.223 349.835L210.336 344.96L211.449 340.085L203.281 338.221L202.168 343.096ZM210.336 344.96L209.222 349.834C208.36 349.637 207.633 349.072 207.228 348.294L211.665 345.988L216.102 343.683C215.156 341.863 213.457 340.544 211.45 340.086L210.336 344.96ZM211.665 345.988L207.228 348.292C206.822 347.51 206.78 346.59 207.113 345.775L211.741 347.668L216.369 349.561C217.147 347.658 217.05 345.509 216.103 343.684L211.665 345.988ZM211.741 347.668L207.114 345.774L171.605 432.525L176.232 434.419L180.86 436.313L216.369 349.562L211.741 347.668ZM176.232 434.419V439.419H198.991V434.419V429.419H176.232V434.419ZM198.991 434.419L203.604 436.348L247.063 332.427L242.45 330.498L237.837 328.569L194.378 432.49L198.991 434.419ZM242.45 330.498L240.386 325.944C234.749 328.5 226.713 330.409 218.116 330.158L217.971 335.156L217.825 340.154C227.959 340.45 237.505 338.23 244.515 335.052L242.45 330.498ZM217.971 335.156L218.116 330.158C206.789 329.828 194.61 325.776 185.357 314.686L181.518 317.889L177.678 321.092C189.148 334.839 204.29 339.759 217.825 340.154L217.971 335.156ZM181.518 317.889L185.358 314.687C185.386 314.72 185.428 314.773 185.479 314.842L181.437 317.785L177.394 320.728C177.496 320.868 177.593 320.99 177.678 321.091L181.518 317.889ZM181.437 317.785L185.479 314.842L118.869 223.359L114.827 226.302L110.785 229.245L177.394 320.728L181.437 317.785ZM114.827 226.302V221.302H85.6191V226.302V231.302H114.827V226.302ZM85.6191 226.302L84.7842 221.372C81.0541 222.004 78.1429 224.324 76.1824 227.106L80.2695 229.986L84.3567 232.866C85.1963 231.675 85.985 231.311 86.4541 231.232L85.6191 226.302ZM80.2695 229.986L76.1822 227.106C74.2014 229.918 73.039 233.394 72.8934 236.725L77.8887 236.943L82.8839 237.162C82.9466 235.727 83.4866 234.101 84.3569 232.866L80.2695 229.986ZM77.8887 236.943L72.8888 236.906L72.2394 323.112L77.2393 323.149L82.2391 323.187L82.8885 236.981L77.8887 236.943ZM77.2393 323.149L72.2394 323.111C72.2519 321.46 73.5937 320.134 75.238 320.134L75.2393 325.134L75.2405 330.134C79.0817 330.133 82.2099 327.035 82.2391 323.187L77.2393 323.149ZM75.2393 325.134V320.134H33V325.134V330.134H75.2393V325.134ZM33 325.134V320.134C34.6568 320.134 36 321.477 36 323.134H31H26C26 327 29.134 330.134 33 330.134V325.134ZM31 323.134H36V234.791H31H26V323.134H31ZM31 234.791L36 234.792C36 234.914 35.9926 235.034 35.9782 235.152L31.0146 234.55L26.0511 233.947C26.0173 234.225 26.0001 234.507 26 234.79L31 234.791ZM31.0146 234.55L35.9782 235.153C36.9785 226.918 38.448 220.996 41.0359 215.617L36.5303 213.449L32.0246 211.281C28.7853 218.014 27.1231 225.123 26.0511 233.947L31.0146 234.55ZM36.5303 213.449L41.0359 215.617C43.6299 210.226 47.4387 205.189 53.3896 198.85L49.7441 195.428L46.0986 192.006C39.8292 198.685 35.25 204.578 32.0247 211.281L36.5303 213.449ZM49.7441 195.428L53.2797 198.963L53.3734 198.87L49.8379 195.334L46.3024 191.798L46.2086 191.892L49.7441 195.428ZM49.8379 195.334L53.2487 198.99C53.2358 199.002 53.1818 199.052 53.1007 199.119L49.9365 195.247L46.7724 191.376C46.6236 191.497 46.5038 191.606 46.4271 191.678L49.8379 195.334ZM49.9365 195.247L53.1005 199.119C58.3126 194.859 62.4677 192.121 66.9247 190.18L64.9287 185.596L62.9327 181.011C57.3241 183.453 52.372 186.8 46.7726 191.375L49.9365 195.247ZM64.9287 185.596L66.9247 190.18C71.3875 188.237 76.3103 187.026 83.1472 186.011L82.4131 181.065L81.679 176.12C74.414 177.198 68.5276 178.575 62.9327 181.011L64.9287 185.596ZM82.4131 181.065L82.9761 186.034L83.1226 186.017L82.5596 181.049L81.9965 176.081L81.85 176.097L82.4131 181.065ZM82.5596 181.049L82.9265 186.035C82.8198 186.043 82.7417 186.044 82.707 186.044V181.044V176.044C82.5744 176.044 82.397 176.047 82.1927 176.062L82.5596 181.049ZM82.707 181.044V186.044H147.683V181.044V176.044H82.707V181.044ZM147.683 181.044L147.683 186.044C172.073 186.044 182.601 167.865 185.299 162.769L180.88 160.43L176.461 158.09C174.111 162.529 166.134 176.044 147.683 176.044L147.683 181.044ZM180.88 160.43L185.299 162.769C187.533 158.55 189.913 152.616 189.776 145.082L184.776 145.173L179.777 145.264C179.873 150.505 178.242 154.726 176.461 158.09L180.88 160.43ZM184.776 145.173L189.776 145.082C189.638 137.524 186.974 128.664 179.647 118.577L175.602 121.516L171.556 124.454C177.881 133.162 179.682 140.075 179.777 145.264L184.776 145.173ZM175.602 121.516L179.646 118.576C179.635 118.56 179.625 118.547 179.621 118.542C179.62 118.54 179.619 118.539 179.618 118.538C179.617 118.536 179.617 118.537 179.617 118.536C179.616 118.535 179.617 118.536 179.618 118.538C179.621 118.541 179.628 118.552 179.638 118.565C179.648 118.58 179.663 118.6 179.681 118.625L175.578 121.483L171.476 124.342C171.516 124.4 171.55 124.446 171.561 124.461C171.564 124.466 171.567 124.469 171.569 124.471C171.569 124.472 171.569 124.472 171.57 124.473C171.57 124.473 171.57 124.473 171.57 124.473C171.571 124.474 171.571 124.474 171.57 124.474C171.57 124.473 171.565 124.466 171.557 124.455L175.602 121.516ZM175.578 121.483L179.682 118.627C176.05 113.41 172.499 109.737 167.842 107.307L165.529 111.74L163.216 116.173C165.891 117.569 168.328 119.82 171.475 124.34L175.578 121.483ZM165.529 111.74L167.842 107.307C163.248 104.911 157.871 103.88 150.898 103.368L150.532 108.354L150.166 113.341C156.68 113.819 160.435 114.722 163.217 116.173L165.529 111.74ZM150.532 108.354V103.354H77.2393V108.354V113.354H150.532V108.354ZM77.2393 108.354H72.2393V162.531H77.2393H82.2393V108.354H77.2393ZM77.2393 162.531L72.2393 162.531C72.2394 161.417 72.8548 160.4 73.8332 159.881L76.1748 164.299L78.5164 168.717C80.8032 167.505 82.239 165.126 82.2393 162.532L77.2393 162.531ZM76.1748 164.299L73.8341 159.881L31.5958 182.258L33.9365 186.676L36.2772 191.094L78.5155 168.717L76.1748 164.299ZM33.9365 186.676L31.5958 182.258C32.526 181.765 33.6455 181.796 34.5467 182.338L31.9688 186.622L29.3908 190.906C31.4941 192.172 34.1074 192.244 36.2772 191.094L33.9365 186.676ZM31.9688 186.622L34.5473 182.338C35.449 182.881 36 183.856 36 184.908H31H26C26 187.363 27.2865 189.64 29.3902 190.906L31.9688 186.622ZM31 184.908H36V65.0967H31H26V184.908H31ZM31 65.0967L36 65.0983C35.9995 66.7526 34.6587 68.0967 33 68.0967V63.0967V58.0967C29.1326 58.0967 26.0012 61.2322 26 65.0951L31 65.0967ZM33 63.0967V68.0967H150.616V63.0967V58.0967H33V63.0967ZM150.616 63.0967L150.616 68.0967C166.393 68.0968 181.309 72.3193 196.908 84.262L199.947 80.292L202.987 76.322C185.586 62.9991 168.517 58.0968 150.616 58.0967L150.616 63.0967ZM199.947 80.292L196.908 84.262C211.306 95.2858 222.532 113.229 224.696 128.909L229.649 128.226L234.602 127.542C232.021 108.837 219.118 88.6722 202.987 76.322L199.947 80.292ZM229.649 128.226L224.696 128.909C226.363 140.985 226.483 148.812 225.385 155.657L230.322 156.449L235.259 157.241C236.579 149.015 236.334 140.087 234.602 127.542L229.649 128.226ZM230.322 156.449L225.385 155.657C224.284 162.524 221.932 168.589 218.324 177.225L222.938 179.152L227.551 181.08C231.145 172.477 233.948 165.417 235.259 157.241L230.322 156.449ZM222.938 179.152L218.324 177.226C218.36 177.139 218.4 177.053 218.446 176.968L222.855 179.325L227.265 181.682C227.37 181.485 227.466 181.283 227.551 181.079L222.938 179.152ZM222.855 179.325L218.446 176.967L213.335 186.524L217.744 188.882L222.153 191.24L227.264 181.683L222.855 179.325ZM217.744 188.882L213.335 186.524C213.376 186.447 213.419 186.375 213.463 186.307L217.658 189.027L221.854 191.747C221.959 191.585 222.059 191.416 222.153 191.24L217.744 188.882ZM217.658 189.027L213.464 186.306L207.869 194.93L212.063 197.651L216.258 200.373L221.853 191.749L217.658 189.027ZM212.063 197.651L207.869 194.93C207.919 194.853 207.96 194.796 207.985 194.764L211.985 197.763L215.986 200.762C216.065 200.657 216.159 200.525 216.258 200.372L212.063 197.651ZM211.985 197.763L207.985 194.763C205.915 197.523 204.004 200.67 196.624 206.574L199.747 210.479L202.871 214.383C211.289 207.648 213.823 203.645 215.985 200.763L211.985 197.763ZM199.747 210.479L196.624 206.574C190.004 211.87 180.479 215.116 167.937 218.759L169.332 223.561L170.727 228.362C183.006 224.795 194.465 221.107 202.871 214.383L199.747 210.479ZM169.332 223.561L165.309 226.529L213.111 291.311L217.134 288.343L221.157 285.374L173.355 220.592L169.332 223.561ZM217.134 288.343L214.308 292.468C216.888 294.235 219.893 295.713 222.991 294.568L221.258 289.878L219.524 285.188C219.946 285.032 220.369 284.964 220.749 284.966C221.103 284.968 221.324 285.03 221.368 285.044C221.408 285.056 221.316 285.032 221.065 284.9C220.817 284.771 220.455 284.557 219.96 284.218L217.134 288.343ZM221.258 289.878L222.993 294.567C224.519 294.002 225.684 292.925 226.613 291.725L222.66 288.664L218.707 285.603C218.434 285.955 218.673 285.503 219.523 285.189L221.258 289.878ZM222.66 288.664L226.614 291.725C227.526 290.546 228.342 289.077 229.13 287.438L224.624 285.271L220.118 283.105C219.444 284.507 218.984 285.244 218.707 285.603L222.66 288.664ZM224.624 285.271L229.29 287.068L315.137 64.0766L310.471 62.2803L305.805 60.4839L219.958 283.475L224.624 285.271ZM310.471 62.2803L315.06 64.2656L315.119 64.1279L310.53 62.1426L305.941 60.1573L305.882 60.295L310.471 62.2803ZM310.53 62.1426L315.049 64.2836C314.568 65.297 313.56 65.9647 312.426 65.9979L312.279 61L312.133 56.0021C309.489 56.0795 307.132 57.6379 306.012 60.0015L310.53 62.1426ZM201.723 345.046L200.61 349.921L208.777 351.785L209.89 346.91L211.002 342.036L202.835 340.171L201.723 345.046ZM209.89 346.91L205.262 345.016L168.625 434.525L173.252 436.419L177.879 438.313L214.517 348.804L209.89 346.91ZM173.252 436.419L177.879 438.313L214.518 348.804L209.891 346.91L205.263 345.016L168.625 434.525L173.252 436.419ZM209.891 346.91L211.004 342.036L202.836 340.17L201.723 345.045L200.61 349.919L208.777 351.785L209.891 346.91ZM201.723 345.045H196.723V345.046H201.723H206.723V345.045H201.723ZM446.865 397.734L446.816 392.735C433.672 392.865 423.122 403.627 423.252 416.77L428.252 416.721L433.252 416.671C433.176 409.05 439.294 402.81 446.915 402.734L446.865 397.734ZM428.252 416.721L423.252 416.77C423.383 429.914 434.144 440.464 447.288 440.334L447.238 435.334L447.189 430.334C439.568 430.41 433.327 424.292 433.252 416.671L428.252 416.721ZM447.238 435.334L447.288 440.334C460.431 440.203 470.981 429.441 470.851 416.298L465.852 416.348L460.852 416.397C460.927 424.018 454.809 430.258 447.188 430.334L447.238 435.334ZM465.852 416.348L470.851 416.298C470.721 403.155 459.959 392.605 446.816 392.735L446.865 397.734L446.915 402.734C454.536 402.659 460.776 408.777 460.852 416.397L465.852 416.348ZM215.621 325.436L214.992 330.396C215.658 330.48 216.325 330.549 216.99 330.602L217.386 325.617L217.781 320.633C217.27 320.592 216.759 320.54 216.25 320.475L215.621 325.436ZM217.386 325.617L217.783 320.633C217.618 320.62 217.448 320.605 217.272 320.588L216.798 325.565L216.323 330.543C216.54 330.563 216.762 330.583 216.988 330.601L217.386 325.617ZM216.798 325.565L217.272 320.588C216.926 320.555 216.586 320.518 216.251 320.475L215.622 325.436L214.993 330.396C215.442 330.453 215.886 330.501 216.323 330.543L216.798 325.565ZM215.622 325.436V320.436H215.621V325.436V330.436H215.622V325.436ZM229.605 324.594H224.605V324.595H229.605H234.605V324.594H229.605ZM229.605 324.595H234.605V324.594H229.605H224.605V324.595H229.605ZM205.341 322.644L203.385 327.245C203.499 327.294 203.615 327.342 203.695 327.375L205.616 322.759L207.538 318.143C207.434 318.099 207.366 318.071 207.297 318.042L205.341 322.644ZM205.616 322.759L207.539 318.143C207.43 318.098 207.367 318.072 207.298 318.042L205.341 322.644L203.384 327.245C203.498 327.293 203.618 327.343 203.693 327.374L205.616 322.759ZM204.63 322.334L202.585 326.897C202.619 326.912 202.649 326.925 202.67 326.934C202.691 326.943 202.709 326.951 202.717 326.954C202.728 326.959 202.726 326.958 202.724 326.957C202.72 326.956 202.708 326.95 202.691 326.943L204.725 322.375L206.758 317.807C206.725 317.793 206.698 317.781 206.678 317.772C206.66 317.764 206.643 317.757 206.638 317.755C206.629 317.751 206.632 317.752 206.637 317.754C206.642 317.757 206.656 317.763 206.675 317.771L204.63 322.334ZM204.725 322.375L206.756 317.806C206.725 317.792 206.697 317.781 206.678 317.772C206.661 317.765 206.643 317.757 206.638 317.755C206.63 317.752 206.632 317.753 206.637 317.755C206.642 317.757 206.655 317.763 206.673 317.771L204.63 322.334L202.586 326.897C202.62 326.912 202.649 326.925 202.67 326.934C202.69 326.943 202.709 326.951 202.716 326.954C202.727 326.958 202.726 326.958 202.724 326.957C202.72 326.956 202.709 326.951 202.693 326.944L204.725 322.375ZM203.678 321.891L201.513 326.398C201.572 326.426 201.658 326.468 201.743 326.508L203.882 321.988L206.021 317.469C205.969 317.444 205.919 317.42 205.842 317.383L203.678 321.891ZM203.882 321.988L206.021 317.469C205.969 317.444 205.919 317.42 205.842 317.383L203.678 321.891L201.513 326.398C201.572 326.426 201.658 326.468 201.743 326.508L203.882 321.988ZM84.5732 216.376L83.0323 211.619C82.4859 211.796 81.9553 211.976 81.4396 212.158L83.1035 216.873L84.7675 221.588C85.2011 221.435 85.6497 221.283 86.1142 221.133L84.5732 216.376ZM83.1035 216.873L84.7653 221.589C85.1962 221.437 85.6454 221.285 86.1142 221.134L84.5732 216.377L83.0323 211.62C82.4903 211.796 81.9601 211.975 81.4417 212.157L83.1035 216.873ZM84.5732 216.377V221.377H120.045V216.377V211.377H84.5732V216.377ZM120.045 216.377L116.018 219.341L186.027 314.444L190.054 311.479L194.08 308.515L124.072 213.413L120.045 216.377ZM190.054 311.479L186.312 314.796C186.491 314.998 186.666 315.191 186.832 315.373L190.522 311.999L194.213 308.625C194.065 308.463 193.927 308.311 193.795 308.163L190.054 311.479ZM190.522 311.999L194.216 308.628C194.072 308.471 193.932 308.316 193.796 308.163L190.055 311.479L186.313 314.796C186.487 314.993 186.66 315.184 186.829 315.37L190.522 311.999ZM190.055 311.479L194.081 308.515L124.072 213.412L120.045 216.376L116.018 219.34L186.028 314.444L190.055 311.479ZM120.045 216.376V211.376H84.5732V216.376V221.376H120.045V216.376ZM224.99 299.336L223.053 294.726C222.89 294.795 222.718 294.864 222.537 294.935L224.358 299.592L226.18 304.248C226.429 304.151 226.679 304.05 226.927 303.946L224.99 299.336ZM224.358 299.592L223.426 294.679C223.213 294.72 223 294.758 222.785 294.794L223.614 299.725L224.444 304.655C224.715 304.61 224.998 304.56 225.291 304.504L224.358 299.592ZM223.614 299.725L224.444 304.655C224.459 304.653 224.472 304.651 224.513 304.644C224.547 304.638 224.601 304.63 224.66 304.619L223.803 299.693L222.945 294.767C222.872 294.78 222.96 294.764 222.785 294.794L223.614 299.725ZM223.803 299.693L224.7 304.612L225.257 304.511L224.359 299.592L223.462 294.673L222.905 294.775L223.803 299.693ZM224.359 299.592L226.181 304.248C226.434 304.149 226.683 304.048 226.929 303.945L224.99 299.336L223.052 294.727C222.886 294.797 222.715 294.866 222.538 294.935L224.359 299.592ZM76.043 235.317L71.1009 234.558C70.9932 235.259 70.9224 235.969 70.8929 236.682L75.8887 236.889L80.8844 237.095C80.8979 236.769 80.931 236.428 80.985 236.077L76.043 235.317ZM75.8887 236.889V241.889H75.8896V236.889V231.889H75.8887V236.889ZM75.8896 236.889L80.8854 237.095C80.8944 236.878 80.9121 236.654 80.9389 236.423L75.9727 235.844L71.0064 235.264C70.9516 235.734 70.9135 236.207 70.8939 236.682L75.8896 236.889ZM75.9727 235.844L80.9389 236.423C80.9521 236.311 80.9677 236.195 80.986 236.077L76.0439 235.317L71.1019 234.558C71.0662 234.791 71.0342 235.026 71.0064 235.264L75.9727 235.844ZM76.0439 235.317V230.317H76.043V235.317V240.317H76.0439V235.317ZM155.083 215.832L155.882 220.768C156.547 220.66 157.219 220.55 157.886 220.436L157.043 215.508L156.2 210.579C155.578 210.686 154.943 210.79 154.284 210.896L155.083 215.832ZM157.043 215.508L156.2 210.579C155.577 210.686 154.942 210.79 154.286 210.896L155.083 215.832L155.88 220.768C156.548 220.66 157.219 220.55 157.886 220.436L157.043 215.508ZM48.3037 213.634L44.0083 211.075C43.8407 211.356 43.6792 211.634 43.524 211.905L47.8623 214.391L52.2006 216.876C52.3364 216.639 52.4683 216.413 52.5991 216.193L48.3037 213.634ZM47.8623 214.391L52.1999 216.878C52.3371 216.638 52.4687 216.412 52.5988 216.193L48.3037 213.634L44.0086 211.074C43.8403 211.357 43.6787 211.635 43.5247 211.904L47.8623 214.391ZM166.915 213.507L165.745 208.646C165.009 208.823 164.262 208.995 163.501 209.163L164.578 214.046L165.655 218.929C166.48 218.747 167.29 218.559 168.085 218.368L166.915 213.507ZM164.578 214.046L165.676 218.924L166.856 218.658L165.758 213.78L164.659 208.902L163.48 209.168L164.578 214.046ZM165.758 213.78L166.88 218.653C167.292 218.558 167.695 218.462 168.085 218.368L166.915 213.507L165.745 208.646C165.371 208.736 165.002 208.823 164.635 208.908L165.758 213.78ZM49.1133 212.32L53.3292 215.008C53.5943 214.593 53.867 214.181 54.1464 213.772L50.0195 210.949L45.8926 208.126C45.5557 208.619 45.2235 209.121 44.8974 209.632L49.1133 212.32ZM50.0195 210.949V205.949H50.0186V210.949V215.949H50.0195V210.949ZM50.0186 210.949L45.8916 208.126C45.5523 208.622 45.2209 209.125 44.897 209.633L49.1133 212.32L53.3295 215.008C53.5967 214.589 53.8687 214.177 54.1455 213.772L50.0186 210.949ZM53.0586 206.952L49.2338 203.732C49.0614 203.937 48.8929 204.14 48.7285 204.341L52.5996 207.506L56.4707 210.67C56.6102 210.5 56.7474 210.334 56.8834 210.173L53.0586 206.952ZM52.5996 207.506L56.4699 210.671C56.6116 210.498 56.7481 210.333 56.8822 210.174L53.0586 206.952L49.235 203.73C49.0606 203.937 48.8917 204.142 48.7293 204.34L52.5996 207.506ZM53.8271 206.06L50.0817 202.747C49.8505 203.009 49.6247 203.27 49.4039 203.529L53.2129 206.769L57.0219 210.008C57.2071 209.79 57.3903 209.578 57.5726 209.372L53.8271 206.06ZM53.2129 206.769L57.0207 210.009C57.2028 209.795 57.3868 209.583 57.5727 209.373L53.8271 206.061L50.0816 202.748C49.8543 203.005 49.6288 203.265 49.4051 203.528L53.2129 206.769ZM53.8271 206.061H58.8271V206.06H53.8271H48.8271V206.061H53.8271ZM51.2021 196.796L47.5567 193.374C47.166 193.79 46.7844 194.201 46.4118 194.606L50.0918 197.991L53.7718 201.376C54.124 200.993 54.4825 200.607 54.8476 200.218L51.2021 196.796ZM50.0918 197.991L53.7537 201.396L54.8641 200.201L51.2021 196.797L47.5402 193.392L46.4299 194.587L50.0918 197.991ZM51.2021 196.797L54.3661 200.668C54.6929 200.401 55.0079 200.146 55.3158 199.899L52.1904 195.996L49.065 192.093C48.7208 192.369 48.3776 192.648 48.0382 192.925L51.2021 196.797ZM52.1904 195.996L49.065 192.093C48.7249 192.366 48.3827 192.643 48.0382 192.924L51.2021 196.796L54.3661 200.668C54.6876 200.405 55.004 200.149 55.3158 199.899L52.1904 195.996ZM67.2363 195.532L64.9457 191.088C64.4919 191.322 64.044 191.562 63.602 191.808L66.0322 196.178L68.4624 200.547C68.8187 200.349 69.1734 200.159 69.527 199.977L67.2363 195.532ZM66.0322 196.178L68.4624 200.547C68.819 200.349 69.1735 200.159 69.5266 199.977L67.2363 195.532L64.9461 191.088C64.4917 191.322 64.0438 191.562 63.602 191.808L66.0322 196.178ZM67.8037 195.247L65.5795 190.769C65.462 190.827 65.2941 190.91 65.13 190.994L67.4014 195.448L69.6727 199.903C69.7761 199.85 69.8771 199.8 70.0279 199.725L67.8037 195.247ZM67.4014 195.448L69.6723 199.903C69.7759 199.85 69.8783 199.799 70.0274 199.725L67.8037 195.247L65.58 190.769C65.4608 190.828 65.2943 190.91 65.1304 190.994L67.4014 195.448ZM69.9072 194.272L67.9343 189.678C67.2134 189.988 66.5001 190.316 65.7946 190.662L67.9961 195.151L70.1976 199.641C70.7567 199.366 71.3177 199.108 71.8802 198.867L69.9072 194.272ZM67.9961 195.151L70.1971 199.641C70.7573 199.366 71.3182 199.108 71.8795 198.867L69.9072 194.272L67.9349 189.678C67.2128 189.988 66.4995 190.317 65.7951 190.662L67.9961 195.151ZM71.0996 193.782L69.2724 189.128C69.057 189.213 68.8495 189.297 68.6594 189.375L70.5537 194.002L72.448 198.629C72.6214 198.558 72.7775 198.495 72.9269 198.436L71.0996 193.782ZM70.5537 194.002L72.4474 198.629C72.6222 198.558 72.7777 198.495 72.9264 198.437L71.0996 193.782L69.2728 189.128C69.0567 189.213 68.8487 189.297 68.66 189.374L70.5537 194.002ZM72.832 193.147L71.221 188.414C70.5952 188.627 69.9748 188.854 69.3601 189.094L71.1777 193.752L72.9954 198.41C73.4783 198.221 73.9609 198.045 74.4431 197.881L72.832 193.147ZM71.1777 193.752L72.995 198.41C73.4784 198.221 73.9611 198.045 74.4431 197.881L72.832 193.147L71.2209 188.414C70.595 188.627 69.9748 188.854 69.3604 189.094L71.1777 193.752ZM73.7178 192.858L72.2193 188.088C71.9346 188.178 71.633 188.274 71.3233 188.379L72.9229 193.116L74.5224 197.853C74.7413 197.78 74.9702 197.706 75.2162 197.629L73.7178 192.858ZM72.9229 193.116L74.5221 197.854C74.7412 197.78 74.9702 197.706 75.2166 197.628L73.7178 192.858L72.219 188.088C71.9346 188.178 71.6332 188.274 71.3236 188.379L72.9229 193.116ZM74.6582 192.575L73.281 187.769C72.9674 187.858 72.6638 187.95 72.3758 188.04L73.8564 192.815L75.3371 197.591C75.5829 197.515 75.8133 197.445 76.0354 197.382L74.6582 192.575ZM73.8564 192.815L75.3375 197.591C75.5826 197.515 75.8131 197.445 76.0354 197.382L74.6582 192.575L73.281 187.769C72.9676 187.858 72.664 187.95 72.3754 188.04L73.8564 192.815ZM152.777 190.959L152.148 185.999C151.487 186.083 150.814 186.159 150.129 186.226L150.615 191.202L151.101 196.178C151.888 196.102 152.656 196.014 153.407 195.919L152.777 190.959ZM150.615 191.202V196.202H150.616V191.202V186.202H150.615V191.202ZM150.616 191.202L151.102 196.178C151.499 196.14 151.892 196.098 152.282 196.055L151.724 191.086L151.165 186.117C150.825 186.156 150.479 186.192 150.13 186.226L150.616 191.202ZM151.724 191.086L152.282 196.055C152.668 196.011 153.045 195.965 153.407 195.919L152.777 190.959L152.148 185.999C151.815 186.041 151.489 186.081 151.165 186.117L151.724 191.086ZM75.2383 162.531V167.531H75.2393V162.531V157.531H75.2383V162.531ZM75.2393 162.531H80.2393V106.355H75.2393H70.2393V162.531H75.2393ZM75.2393 106.355V101.355H75.2383V106.355V111.355H75.2393V106.355ZM75.2383 106.355H70.2383V162.531H75.2383H80.2383V106.355H75.2383ZM175.189 117.594L179.116 114.498C178.918 114.247 178.724 114.007 178.537 113.779L174.667 116.944L170.797 120.11C170.958 120.307 171.113 120.499 171.263 120.69L175.189 117.594ZM174.667 116.944L170.796 120.109C170.958 120.307 171.113 120.499 171.263 120.69L175.189 117.594L179.116 114.498C178.918 114.247 178.724 114.007 178.538 113.78L174.667 116.944ZM174.473 116.71L178.32 113.517C178.181 113.349 178.035 113.175 177.884 112.998L174.085 116.249L170.286 119.5C170.394 119.626 170.505 119.759 170.625 119.903L174.473 116.71ZM174.085 116.249L170.288 119.502C170.394 119.625 170.504 119.757 170.625 119.903L174.473 116.71L178.321 113.517C178.183 113.351 178.035 113.175 177.882 112.996L174.085 116.249ZM197.623 81.043L194.638 85.0542C194.985 85.3121 195.335 85.5772 195.691 85.8499L198.73 81.8799L201.77 77.9098C201.387 77.6166 201 77.3231 200.608 77.0318L197.623 81.043ZM198.73 81.8799V86.8799H198.731V81.8799V76.8799H198.73V81.8799ZM198.731 81.8799L201.771 77.9099C201.385 77.6144 200.997 77.3211 200.607 77.0308L197.623 81.043L194.639 85.0551C194.988 85.3142 195.338 85.5792 195.692 85.8499L198.731 81.8799ZM150.615 65.0977V70.0977C151.585 70.0977 152.548 70.1133 153.503 70.1464L153.677 65.1494L153.85 60.1524C152.771 60.115 151.692 60.0977 150.615 60.0977V65.0977ZM153.677 65.1494L153.85 60.1524C153.311 60.1337 152.773 60.1203 152.238 60.1111L152.152 65.1104L152.067 70.1096C152.549 70.1179 153.028 70.1299 153.504 70.1464L153.677 65.1494ZM152.152 65.1104L152.238 60.1111C151.702 60.1019 151.161 60.0967 150.616 60.0967L150.616 65.0967L150.616 70.0967C151.097 70.0967 151.581 70.1013 152.067 70.1096L152.152 65.1104ZM150.616 65.0967V60.0967H33V65.0967V70.0967H150.616V65.0967ZM33 65.0967L33 70.0967L150.615 70.0977L150.615 65.0977L150.615 60.0977L33 60.0967L33 65.0967ZM152.96 216.166L153.723 221.108L155.108 220.894L154.346 215.952L153.583 211.011L152.197 211.225L152.96 216.166ZM154.346 215.952L155.126 220.891C155.358 220.854 155.623 220.81 155.813 220.78L155.016 215.844L154.219 210.908C153.963 210.949 153.783 210.979 153.566 211.013L154.346 215.952ZM155.016 215.844L154.22 210.907C153.556 211.014 152.886 211.12 152.209 211.223L152.96 216.166L153.711 221.109C154.423 221.001 155.123 220.891 155.811 220.78L155.016 215.844ZM48.6904 212.995L44.4328 210.374C44.3076 210.577 44.188 210.776 44.079 210.958L48.3682 213.527L52.6574 216.097C52.7618 215.923 52.8561 215.766 52.9481 215.617L48.6904 212.995ZM48.3682 213.527L52.6571 216.097C52.7624 215.922 52.8561 215.766 52.9478 215.617L48.6904 212.995L44.4331 210.373C44.3075 210.577 44.1874 210.777 44.0792 210.957L48.3682 213.527ZM48.3145 213.616L52.6086 216.178C52.6056 216.183 52.6047 216.184 52.6142 216.168C52.6205 216.158 52.6385 216.128 52.6571 216.097L48.3682 213.527L44.0792 210.957C44.08 210.956 44.0801 210.956 44.0684 210.975C44.0599 210.989 44.041 211.02 44.0203 211.055L48.3145 213.616ZM48.3682 213.527L44.079 210.958C44.0803 210.956 44.0806 210.955 44.0666 210.978C44.0564 210.995 44.0334 211.032 44.0083 211.075L48.3037 213.634L52.5991 216.193C52.5952 216.2 52.5938 216.202 52.6053 216.183C52.6128 216.171 52.6347 216.135 52.6574 216.097L48.3682 213.527ZM48.3037 213.634L52.5988 216.193C52.5859 216.215 52.5755 216.232 52.5695 216.242C52.5664 216.247 52.564 216.251 52.5627 216.253C52.5615 216.255 52.5606 216.257 52.5612 216.256C52.5614 216.255 52.5631 216.252 52.5651 216.249C52.5672 216.246 52.5705 216.24 52.5744 216.234C52.582 216.222 52.5941 216.202 52.6086 216.178L48.3145 213.616L44.0203 211.055C44.0331 211.034 44.0433 211.017 44.0492 211.007C44.0522 211.002 44.0545 210.998 44.0558 210.996C44.0568 210.995 44.0577 210.993 44.057 210.995C44.0567 210.995 44.0549 210.998 44.0528 211.001C44.0506 211.005 44.0473 211.01 44.0433 211.017C44.0355 211.029 44.0232 211.05 44.0086 211.074L48.3037 213.634ZM49.1133 212.32L44.897 209.633C44.7707 209.831 44.6497 210.025 44.5399 210.202L48.7881 212.839L53.0363 215.476C53.1419 215.305 53.2369 215.153 53.3295 215.008L49.1133 212.32ZM48.7881 212.839L53.0359 215.476C53.1426 215.304 53.237 215.153 53.3292 215.008L49.1133 212.32L44.8974 209.632C44.7705 209.831 44.6491 210.026 44.5402 210.201L48.7881 212.839ZM70.458 194.04L68.5521 189.418C68.3377 189.506 68.1302 189.594 67.9343 189.678L69.9072 194.272L71.8802 198.867C72.0509 198.793 72.2103 198.726 72.364 198.663L70.458 194.04ZM69.9072 194.272L71.8795 198.867C72.0518 198.793 72.2107 198.726 72.3634 198.663L70.458 194.04L68.5527 189.417C68.3373 189.506 68.1293 189.594 67.9349 189.678L69.9072 194.272Z"
    fill="white"
    mask="url(#path-1-inside-1_0_1)"
  />
  <path
    d="M511.995 0.00488281V511.995H0.00488281V0.00488281H511.995Z"
    stroke="#6A819C"
    stroke-opacity="0.06"
    stroke-width="0.01"
  />
</svg>
